<svg width="100" height="100" viewBox="0 0 100 100" fill="none" xmlns="http://www.w3.org/2000/svg">
<rect x="3" y="3" width="94" height="94" fill="white" stroke="black" stroke-width="6"/>
<path d="M51.5815 76.504C47.3095 76.504 43.5655 75.664 40.3495 73.984C37.1815 72.256 34.7095 69.904 32.9335 66.928C31.2055 63.952 30.3415 60.568 30.3415 56.776C30.3415 52.936 31.1815 49.552 32.8615 46.624C34.5895 43.648 36.9415 41.32 39.9175 39.64C42.9415 37.96 46.3735 37.12 50.2135 37.12C53.9575 37.12 57.2935 37.936 60.2215 39.568C63.1495 41.2 65.4535 43.504 67.1335 46.48C68.8135 49.456 69.6535 52.96 69.6535 56.992C69.6535 57.376 69.6295 57.808 69.5815 58.288C69.5815 58.768 69.5575 59.224 69.5095 59.656H37.4695V53.68H64.7575L61.2295 55.552C61.2775 53.344 60.8215 51.4 59.8615 49.72C58.9015 48.04 57.5815 46.72 55.9015 45.76C54.2695 44.8 52.3735 44.32 50.2135 44.32C48.0055 44.32 46.0615 44.8 44.3815 45.76C42.7495 46.72 41.4535 48.064 40.4935 49.792C39.5815 51.472 39.1255 53.464 39.1255 55.768V57.208C39.1255 59.512 39.6535 61.552 40.7095 63.328C41.7655 65.104 43.2535 66.472 45.1735 67.432C47.0935 68.392 49.3015 68.872 51.7975 68.872C53.9575 68.872 55.9015 68.536 57.6295 67.864C59.3575 67.192 60.8935 66.136 62.2375 64.696L67.0615 70.24C65.3335 72.256 63.1495 73.816 60.5095 74.92C57.9175 75.976 54.9415 76.504 51.5815 76.504Z" fill="black"/>
</svg>
